<svg width="247" height="76" viewBox="0 0 247 76" fill="none" xmlns="http://www.w3.org/2000/svg">
<g clip-path="url(#clip0_4450_52969)">
<path d="M259.214 -97.7143H-12.2143V173.714H259.214V-97.7143Z" fill="white"/>
<path d="M121.837 49.8022L96.0349 23.6555L87.1667 14.7505L78.6124 23.4101L51.8696 50.1529L61.5037 59.787L86.5408 34.5713L111.995 60.0253L121.837 49.8022Z" fill="#8153AB"/>
<path d="M33.8109 59.6785C30.5852 56.4528 27.3768 53.2445 24.1569 50.0248C35.9441 38.2318 47.7256 26.4502 59.5186 14.6572L69.1728 24.3113C57.3852 36.0984 45.6041 47.88 33.8109 59.6731V59.6785ZM53.437 38.1797L50.3096 35.0523L49.6679 35.694C50.714 36.74 51.7546 37.7807 52.7953 38.8214L53.437 38.1797ZM59.9811 31.6296C58.9345 30.5835 57.8998 29.5488 56.8537 28.5022L56.2121 29.1439L59.3394 32.2713L59.9811 31.6296ZM46.9048 44.7233C45.8467 43.6658 44.812 42.6306 43.7774 41.5959L43.1297 42.2435L46.2571 45.3709L46.9048 44.7233ZM36.5858 48.7584L39.719 51.8917L40.3607 51.2501C40.1873 51.0769 40.0254 50.9146 39.8578 50.7474C39.0311 49.9206 38.2102 49.0998 37.3835 48.2731C37.3142 48.2036 37.2506 48.0879 37.1407 48.1976C36.9615 48.3827 36.7766 48.5619 36.5858 48.7529V48.7584ZM66.5307 25.086C66.2533 24.8086 65.9932 24.548 65.7332 24.288C65.0047 23.5595 64.2762 22.8315 63.5477 22.109C63.4956 22.0569 63.3685 21.9988 63.3457 22.0161C63.1432 22.1953 62.9522 22.3978 62.7556 22.5943C63.8137 23.6523 64.8484 24.687 65.889 25.7277L66.5307 25.086ZM63.9179 27.7047C63.4321 27.2189 62.9695 26.7509 62.5016 26.2939C62.4728 26.2651 62.386 26.2596 62.3626 26.2824C62.1601 26.4676 61.9696 26.6641 61.7731 26.8666L63.2703 28.3638L63.9233 27.7102L63.9179 27.7047ZM48.0203 40.6074C47.8238 40.8039 47.6333 40.9836 47.4596 41.1801C47.4308 41.2089 47.4596 41.3359 47.5057 41.382C47.7315 41.6252 47.9742 41.8559 48.2055 42.0932C48.4248 42.313 48.6386 42.5269 48.8645 42.7522L49.5116 42.1046L48.0203 40.6133V40.6074ZM37.5685 51.0823L36.9153 51.7359L38.3952 53.2158L39.0484 52.5622L37.5685 51.0823ZM42.7769 45.8508C42.5923 46.0359 42.43 46.2091 42.2568 46.3655C42.1472 46.4637 42.17 46.5332 42.2802 46.6369C42.563 46.9089 42.8409 47.1922 43.1183 47.4696C43.2861 47.6368 43.4592 47.8105 43.6324 47.9837L44.2741 47.3421C43.7774 46.8453 43.2915 46.3595 42.7769 45.8448V45.8508ZM57.1832 31.4504C56.9867 31.647 56.8016 31.8321 56.6165 32.0172C56.5296 32.1041 56.5991 32.1616 56.6686 32.2311C56.9921 32.5546 57.3217 32.8841 57.6457 33.2082C57.7728 33.3353 57.8998 33.4623 58.0268 33.5893L58.6745 32.9422L57.1886 31.4564L57.1832 31.4504ZM44.1123 44.5501L43.4652 45.1978L44.945 46.6776L45.5921 46.03L44.1123 44.5501ZM56.0557 35.5664L54.5759 34.0866L53.9342 34.7282L55.414 36.2081L56.0557 35.5664ZM47.5638 44.0469L48.2055 43.4053L46.731 41.9314L46.0894 42.5731L47.5638 44.0469ZM65.2072 26.4155L63.7328 24.9416L63.1025 25.5713L64.5769 27.0457L65.2072 26.4155ZM61.2872 30.3349L59.8134 28.861L59.1777 29.4967L60.6515 30.9706L61.2872 30.3349ZM57.3678 34.2483C56.8939 33.7744 56.4433 33.3179 55.9808 32.8727C55.9401 32.832 55.8244 32.8146 55.7957 32.838C55.5992 33.0117 55.42 33.2023 55.2289 33.3988L56.7261 34.896L57.3678 34.2543V34.2483ZM50.0088 38.6476L51.4886 40.1275L52.1249 39.4918L50.645 38.012L50.0088 38.6476ZM41.6556 49.9668L40.1757 48.4869L39.5456 49.1172C40.0485 49.6199 40.5341 50.1057 41.0255 50.597L41.6556 49.9668ZM35.1521 56.4702L33.6722 54.9904L33.0421 55.6206L34.522 57.1004L35.1521 56.4702ZM54.7436 36.873L53.2638 35.3932L52.6276 36.0289C53.1248 36.5262 53.6107 37.012 54.1074 37.5087L54.7436 36.873ZM48.7081 39.9483L50.1825 41.4227L50.8128 40.7925L49.3384 39.3186L48.7081 39.9483ZM42.9734 48.6427L41.4937 47.1629L40.8521 47.8046L42.3317 49.2844L42.9734 48.6427ZM36.262 52.4004L35.6261 53.0366L37.1003 54.5105L37.7362 53.8748L36.262 52.4004ZM36.4297 55.1869L34.9498 53.707L34.3139 54.3427L35.7938 55.8226L36.4297 55.1869ZM62.6113 29.0168L61.1255 27.531L60.4838 28.1727L61.9696 29.6585L62.6113 29.0168Z" fill="#8153AB"/>
<path d="M132.501 18.4501H137.749L144.777 35.6054H145.055L152.084 18.4501H157.332V42.1252H153.216V25.8601H152.997L146.454 42.0557H143.379L136.836 25.8253H136.616V42.1252H132.501V18.4501Z" fill="#8153AB"/>
<path d="M162.002 42.1252V18.4501H177.4V22.0454H166.291V28.4728H176.602V32.0676H166.291V38.5298H177.493V42.1252H162.002Z" fill="#8153AB"/>
<path d="M181.775 42.1252V18.4501H190.654C192.472 18.4501 193.998 18.766 195.231 19.3979C196.472 20.0298 197.408 20.9163 198.04 22.0568C198.68 23.1898 199 24.5116 199 26.0218C199 27.5402 198.676 28.8577 198.029 29.9755C197.389 31.0851 196.445 31.9444 195.197 32.5535C193.948 33.1544 192.415 33.4552 190.595 33.4552H184.272V29.8946H190.018C191.081 29.8946 191.952 29.748 192.63 29.4554C193.308 29.1547 193.809 28.7193 194.133 28.1488C194.464 27.5712 194.63 26.8622 194.63 26.0218C194.63 25.182 194.464 24.4649 194.133 23.8716C193.802 23.2706 193.297 22.8157 192.619 22.5079C191.941 22.1914 191.066 22.0335 189.995 22.0335H186.064V42.1252H181.775ZM194.006 31.3972L199.867 42.1252H195.081L189.324 31.3972H194.006Z" fill="#8153AB"/>
<path d="M205.988 42.1252H201.41L209.745 18.4501H215.039L223.386 42.1252H218.808L212.485 23.3054H212.299L205.988 42.1252ZM206.138 32.8423H218.623V36.2873H206.138V32.8423Z" fill="#8153AB"/>
<path d="M135.35 49C135.701 49 136.002 49.0742 136.252 49.2227C136.506 49.3711 136.701 49.5684 136.838 49.8145V49.1289H137.928V51.5078H136.838C136.838 51.0586 136.719 50.709 136.48 50.459C136.246 50.2051 135.93 50.0781 135.531 50.0781C135.18 50.0781 134.887 50.1602 134.652 50.3242C134.422 50.4883 134.307 50.7188 134.307 51.0156C134.307 51.168 134.336 51.2988 134.395 51.4082C134.457 51.5137 134.545 51.6113 134.658 51.7012C134.775 51.7871 134.922 51.8691 135.098 51.9473C135.273 52.0215 135.477 52.1035 135.707 52.1934C135.996 52.2949 136.283 52.4102 136.568 52.5391C136.854 52.668 137.109 52.8262 137.336 53.0137C137.562 53.2012 137.748 53.4297 137.893 53.6992C138.037 53.9648 138.109 54.291 138.109 54.6777C138.109 55.0293 138.049 55.3438 137.928 55.6211C137.811 55.8945 137.648 56.127 137.441 56.3184C137.238 56.5098 136.994 56.6562 136.709 56.7578C136.428 56.8594 136.127 56.9102 135.807 56.9102C135.447 56.9102 135.123 56.8457 134.834 56.7168C134.545 56.5879 134.297 56.375 134.09 56.0781V56.7754H133V54.2793H134.09C134.09 54.5293 134.133 54.75 134.219 54.9414C134.309 55.1328 134.426 55.2949 134.57 55.4277C134.715 55.5566 134.883 55.6562 135.074 55.7266C135.266 55.793 135.469 55.8262 135.684 55.8262C136.047 55.8262 136.34 55.7422 136.562 55.5742C136.785 55.4062 136.896 55.1387 136.896 54.7715C136.896 54.5801 136.861 54.416 136.791 54.2793C136.725 54.1426 136.627 54.0215 136.498 53.916C136.373 53.8066 136.219 53.7129 136.035 53.6348C135.852 53.5527 135.643 53.4668 135.408 53.377C135.131 53.2832 134.854 53.1777 134.576 53.0605C134.299 52.9434 134.051 52.7988 133.832 52.627C133.613 52.4551 133.436 52.2441 133.299 51.9941C133.162 51.7402 133.094 51.4219 133.094 51.0391C133.094 50.7031 133.154 50.4102 133.275 50.1602C133.4 49.9062 133.564 49.6934 133.768 49.5215C133.975 49.3496 134.213 49.2207 134.482 49.1348C134.756 49.0449 135.045 49 135.35 49Z" fill="#8153AB"/>
<path d="M140.986 54.2793L141.543 51.3145H142.703L143.242 54.2793L143.963 49.1289H145.223L144.039 56.7754H142.791L142.117 53.4766L141.455 56.7754H140.207L139.023 49.1289H140.283L140.986 54.2793Z" fill="#8153AB"/>
<path d="M151.117 50.2246H147.443V52.334H150.309V53.4297H147.443V55.6855H151.117V56.7754H146.23V49.1289H151.117V50.2246Z" fill="#8153AB"/>
</g>
<defs>
<clipPath id="clip0_4450_52969">
<rect width="247" height="76" fill="white"/>
</clipPath>
</defs>
</svg>
